<svg id="图层_1" data-name="图层 1" xmlns="http://www.w3.org/2000/svg" viewBox="0 0 1646.91 977.41"><defs><style>.cls-1,.cls-2,.cls-3,.cls-4{fill:none;stroke-width:4px;}.cls-1,.cls-7{stroke:#80a6e6;}.cls-1,.cls-12,.cls-2,.cls-3,.cls-4,.cls-5,.cls-6,.cls-7,.cls-8{stroke-miterlimit:10;}.cls-2,.cls-8{stroke:#2b998c;}.cls-3,.cls-5{stroke:#eb8aaa;}.cls-4,.cls-6{stroke:#9878c2;}.cls-5,.cls-6,.cls-7,.cls-8,.cls-9{font-size:32px;}.cls-5{fill:#eb8aaa;}.cls-10,.cls-11,.cls-5,.cls-6,.cls-7,.cls-8,.cls-9{font-family:ArialMT, Arial;}.cls-6{fill:#9878c2;}.cls-7{fill:#80a6e6;}.cls-8{fill:#2b998c;}.cls-10{font-size:26px;}.cls-11{font-size:28px;}.cls-12{fill:#ededed;stroke:#ededed;stroke-width:2px;}</style></defs><path class="cls-1" d="M239,427l104-93,105-41,106,19,106,75L766,224l107,61,104,33,105,135q53.51-113,107-226l105,22,105,113,106-163,106,2,105,42,81-22" transform="translate(-152.3 -49.52)"/><path class="cls-2" d="M239,378l104,66,106-27L555,522l105,75q53-127,106-254l106,3,105-40,105,1,106,37,106-106,106,49,108-7,101-19,106,22,80,10" transform="translate(-152.3 -49.52)"/><line class="cls-3" x1="318.7" y1="71.48" x2="346.7" y2="71.48"/><line class="cls-4" x1="584.7" y1="71.48" x2="612.7" y2="71.48"/><line class="cls-1" x1="850.7" y1="71.48" x2="878.7" y2="71.48"/><line class="cls-2" x1="1133.7" y1="71.48" x2="1161.7" y2="71.48"/><text class="cls-5" transform="translate(361.56 80.42)">resnet34 fc</text><text class="cls-6" transform="translate(627.46 80.46)">resnet18 fc</text><text class="cls-7" transform="translate(893.94 80.46)">resnet152 fc</text><text class="cls-8" transform="translate(1176.94 80.46)">resnet50 fc</text><text class="cls-9" transform="translate(715 32.4)">valid_accuracy</text><text class="cls-10" transform="translate(5.22 111.71)">0.86</text><text class="cls-10" transform="translate(5.5 307.31)">0.84</text><text class="cls-10" transform="translate(5.5 505.19)">0.82</text><text class="cls-10" transform="translate(20.73 703.08)">0.8</text><text class="cls-10" transform="translate(5.5 900.53)">0.78</text><text class="cls-10" transform="translate(184.57 968.97)">2</text><text class="cls-10" transform="translate(395.81 968.97)">4</text><text class="cls-10" transform="translate(607.36 968.97)">6</text><text class="cls-10" transform="translate(818.36 968.97)">8</text><text class="cls-10" transform="translate(1021.13 968.97)">10</text><text class="cls-10" transform="translate(1232.8 968.97)">12</text><text class="cls-10" transform="translate(1443.8 968.97)">14</text><text class="cls-11" transform="translate(1557.08 906.83)">epoch</text><line class="cls-12" x1="1458.7" y1="906.48" x2="1458.7" y2="929.48"/><line class="cls-12" x1="1247.7" y1="906.48" x2="1247.7" y2="929.48"/><line class="cls-12" x1="1035.7" y1="906.48" x2="1035.7" y2="929.48"/><line class="cls-12" x1="825.7" y1="906.48" x2="825.7" y2="929.48"/><line class="cls-12" x1="614.7" y1="906.48" x2="614.7" y2="929.48"/><line class="cls-12" x1="402.7" y1="906.48" x2="402.7" y2="929.48"/><line class="cls-12" x1="191.7" y1="906.48" x2="191.7" y2="929.48"/><path class="cls-3" d="M239,850,344,617l210,37,107-41,106,85,105-88L977,725l106-94,105,48,106-63,104,31,108-5,105,93,106-117,79-21" transform="translate(-152.3 -49.52)"/><path class="cls-4" d="M240,782l104-88L450,967,555,719,660,845,767,698l104,19,107-40,105,19,105-53,107,14,103,30,107,39,107-41,105,92,81-61" transform="translate(-152.3 -49.52)"/></svg>